<mxfile host="app.diagrams.net" agent="Mozilla/5.0 (Windows NT 10.0; Win64; x64) AppleWebKit/537.36 (KHTML, like Gecko) Chrome/133.0.0.0 Safari/537.36 Edg/133.0.0.0" version="26.0.16">
  <diagram name="Seite-1" id="DFNLTvJq9VpUuVKCkXZx">
    <mxGraphModel dx="-681" dy="1495" grid="0" gridSize="10" guides="1" tooltips="1" connect="1" arrows="1" fold="1" page="0" pageScale="1" pageWidth="827" pageHeight="1169" math="0" shadow="0">
      <root>
        <mxCell id="0" />
        <mxCell id="1" parent="0" />
        <mxCell id="cxbMUShry3Oriru9tbwx-71" value="Linear" style="swimlane;whiteSpace=wrap;labelBackgroundColor=none;fillColor=#FAE5C7;strokeColor=default;fontColor=#143642;swimlaneLine=1;" vertex="1" parent="1">
          <mxGeometry x="1499" y="-923" width="280" height="967" as="geometry" />
        </mxCell>
        <mxCell id="cxbMUShry3Oriru9tbwx-72" style="edgeStyle=orthogonalEdgeStyle;rounded=0;orthogonalLoop=1;jettySize=auto;html=1;" edge="1" parent="cxbMUShry3Oriru9tbwx-71" source="cxbMUShry3Oriru9tbwx-73" target="cxbMUShry3Oriru9tbwx-75">
          <mxGeometry relative="1" as="geometry" />
        </mxCell>
        <mxCell id="cxbMUShry3Oriru9tbwx-73" value="Webanwendung&lt;div&gt;starten&lt;/div&gt;" style="rounded=1;whiteSpace=wrap;html=1;labelBackgroundColor=none;fillColor=#FAE5C7;strokeColor=#0F8B8D;fontColor=#143642;" vertex="1" parent="cxbMUShry3Oriru9tbwx-71">
          <mxGeometry x="80" y="110" width="120" height="60" as="geometry" />
        </mxCell>
        <mxCell id="cxbMUShry3Oriru9tbwx-74" style="edgeStyle=orthogonalEdgeStyle;rounded=0;orthogonalLoop=1;jettySize=auto;html=1;" edge="1" parent="cxbMUShry3Oriru9tbwx-71" source="cxbMUShry3Oriru9tbwx-75" target="cxbMUShry3Oriru9tbwx-86">
          <mxGeometry relative="1" as="geometry" />
        </mxCell>
        <mxCell id="cxbMUShry3Oriru9tbwx-75" value="Bild zum&lt;div&gt;hochladen&lt;br&gt;&lt;div&gt;auswählen&lt;/div&gt;&lt;/div&gt;" style="rounded=1;whiteSpace=wrap;html=1;labelBackgroundColor=none;fillColor=#FAE5C7;strokeColor=#0F8B8D;fontColor=#143642;" vertex="1" parent="cxbMUShry3Oriru9tbwx-71">
          <mxGeometry x="80" y="210" width="120" height="60" as="geometry" />
        </mxCell>
        <mxCell id="cxbMUShry3Oriru9tbwx-76" style="edgeStyle=orthogonalEdgeStyle;rounded=0;orthogonalLoop=1;jettySize=auto;html=1;strokeColor=#A8201A;fontColor=#143642;fillColor=#FAE5C7;" edge="1" parent="cxbMUShry3Oriru9tbwx-71" source="cxbMUShry3Oriru9tbwx-77" target="cxbMUShry3Oriru9tbwx-73">
          <mxGeometry relative="1" as="geometry" />
        </mxCell>
        <mxCell id="cxbMUShry3Oriru9tbwx-77" value="" style="ellipse;html=1;shape=startState;fillColor=#000000;strokeColor=#ff0000;fontColor=#143642;" vertex="1" parent="cxbMUShry3Oriru9tbwx-71">
          <mxGeometry x="125" y="40" width="30" height="30" as="geometry" />
        </mxCell>
        <mxCell id="cxbMUShry3Oriru9tbwx-78" style="edgeStyle=orthogonalEdgeStyle;rounded=0;orthogonalLoop=1;jettySize=auto;html=1;" edge="1" parent="cxbMUShry3Oriru9tbwx-71" source="cxbMUShry3Oriru9tbwx-79" target="cxbMUShry3Oriru9tbwx-81">
          <mxGeometry relative="1" as="geometry" />
        </mxCell>
        <mxCell id="cxbMUShry3Oriru9tbwx-79" value="Bild Verarbeitung&lt;div&gt;im Backend&lt;/div&gt;" style="rounded=1;whiteSpace=wrap;html=1;labelBackgroundColor=none;fillColor=#FAE5C7;strokeColor=#0F8B8D;fontColor=#143642;" vertex="1" parent="cxbMUShry3Oriru9tbwx-71">
          <mxGeometry x="80" y="420" width="120" height="60" as="geometry" />
        </mxCell>
        <mxCell id="cxbMUShry3Oriru9tbwx-80" style="edgeStyle=orthogonalEdgeStyle;rounded=0;orthogonalLoop=1;jettySize=auto;html=1;" edge="1" parent="cxbMUShry3Oriru9tbwx-71" source="cxbMUShry3Oriru9tbwx-81" target="cxbMUShry3Oriru9tbwx-82">
          <mxGeometry relative="1" as="geometry" />
        </mxCell>
        <mxCell id="cxbMUShry3Oriru9tbwx-81" value="OCR- Anwendung" style="rounded=1;whiteSpace=wrap;html=1;labelBackgroundColor=none;fillColor=#FAE5C7;strokeColor=#0F8B8D;fontColor=#143642;" vertex="1" parent="cxbMUShry3Oriru9tbwx-71">
          <mxGeometry x="80" y="530" width="120" height="60" as="geometry" />
        </mxCell>
        <mxCell id="cxbMUShry3Oriru9tbwx-82" value="Erstellung der&lt;div&gt;JSON-Antwort&lt;/div&gt;" style="rounded=1;whiteSpace=wrap;html=1;strokeColor=#0F8B8D;fontColor=#143642;fillColor=#FAE5C7;" vertex="1" parent="cxbMUShry3Oriru9tbwx-71">
          <mxGeometry x="80" y="640" width="120" height="60" as="geometry" />
        </mxCell>
        <mxCell id="cxbMUShry3Oriru9tbwx-83" value="" style="ellipse;html=1;shape=endState;fillColor=#000000;strokeColor=#ff0000;fontColor=#143642;" vertex="1" parent="cxbMUShry3Oriru9tbwx-71">
          <mxGeometry x="125" y="884" width="30" height="30" as="geometry" />
        </mxCell>
        <mxCell id="cxbMUShry3Oriru9tbwx-84" style="edgeStyle=orthogonalEdgeStyle;rounded=0;orthogonalLoop=1;jettySize=auto;html=1;strokeColor=#A8201A;fontColor=#143642;fillColor=#FAE5C7;" edge="1" parent="cxbMUShry3Oriru9tbwx-71" target="cxbMUShry3Oriru9tbwx-83">
          <mxGeometry relative="1" as="geometry">
            <mxPoint x="140" y="814" as="sourcePoint" />
          </mxGeometry>
        </mxCell>
        <mxCell id="cxbMUShry3Oriru9tbwx-85" style="edgeStyle=orthogonalEdgeStyle;rounded=0;orthogonalLoop=1;jettySize=auto;html=1;" edge="1" parent="cxbMUShry3Oriru9tbwx-71" source="cxbMUShry3Oriru9tbwx-86" target="cxbMUShry3Oriru9tbwx-79">
          <mxGeometry relative="1" as="geometry" />
        </mxCell>
        <mxCell id="cxbMUShry3Oriru9tbwx-86" value="Vorhersage&lt;div&gt;auslösen&lt;/div&gt;" style="rounded=1;whiteSpace=wrap;html=1;labelBackgroundColor=none;fillColor=#FAE5C7;strokeColor=#0F8B8D;fontColor=#143642;" vertex="1" parent="cxbMUShry3Oriru9tbwx-71">
          <mxGeometry x="80" y="310" width="120" height="60" as="geometry" />
        </mxCell>
        <mxCell id="cxbMUShry3Oriru9tbwx-154" value="Anzeige im&lt;div&gt;Frontend&lt;/div&gt;" style="rounded=1;whiteSpace=wrap;html=1;strokeColor=#0F8B8D;fontColor=#143642;fillColor=#FAE5C7;" vertex="1" parent="cxbMUShry3Oriru9tbwx-71">
          <mxGeometry x="80" y="762" width="120" height="60" as="geometry" />
        </mxCell>
        <mxCell id="cxbMUShry3Oriru9tbwx-155" style="edgeStyle=orthogonalEdgeStyle;rounded=0;orthogonalLoop=1;jettySize=auto;html=1;exitX=0.5;exitY=1;exitDx=0;exitDy=0;entryX=0.5;entryY=0;entryDx=0;entryDy=0;" edge="1" parent="cxbMUShry3Oriru9tbwx-71" source="cxbMUShry3Oriru9tbwx-82" target="cxbMUShry3Oriru9tbwx-154">
          <mxGeometry relative="1" as="geometry">
            <mxPoint x="139.63" y="705" as="sourcePoint" />
            <mxPoint x="139.63" y="755" as="targetPoint" />
            <Array as="points">
              <mxPoint x="140" y="744" />
              <mxPoint x="140" y="744" />
            </Array>
          </mxGeometry>
        </mxCell>
        <mxCell id="cxbMUShry3Oriru9tbwx-133" value="Webanwendung" style="swimlane;whiteSpace=wrap;labelBackgroundColor=none;fillColor=#FAE5C7;strokeColor=#0F8B8D;fontColor=#143642;startSize=26;" vertex="1" parent="1">
          <mxGeometry x="1904" y="-923" width="594" height="965" as="geometry" />
        </mxCell>
        <mxCell id="cxbMUShry3Oriru9tbwx-134" value="" style="ellipse;html=1;shape=endState;fillColor=#000000;strokeColor=#ff0000;fontColor=#143642;" vertex="1" parent="cxbMUShry3Oriru9tbwx-133">
          <mxGeometry x="282" y="906" width="30" height="30" as="geometry" />
        </mxCell>
        <mxCell id="cxbMUShry3Oriru9tbwx-135" style="edgeStyle=orthogonalEdgeStyle;rounded=0;orthogonalLoop=1;jettySize=auto;html=1;entryX=0.5;entryY=0;entryDx=0;entryDy=0;" edge="1" parent="cxbMUShry3Oriru9tbwx-133" source="cxbMUShry3Oriru9tbwx-136" target="cxbMUShry3Oriru9tbwx-158">
          <mxGeometry relative="1" as="geometry">
            <mxPoint x="295.04761904761835" y="201" as="targetPoint" />
          </mxGeometry>
        </mxCell>
        <mxCell id="cxbMUShry3Oriru9tbwx-136" value="Webanwendung&lt;div&gt;starten&lt;/div&gt;" style="rounded=1;whiteSpace=wrap;html=1;labelBackgroundColor=none;fillColor=#FAE5C7;strokeColor=#0F8B8D;fontColor=#143642;" vertex="1" parent="cxbMUShry3Oriru9tbwx-133">
          <mxGeometry x="237" y="127" width="120" height="60" as="geometry" />
        </mxCell>
        <mxCell id="cxbMUShry3Oriru9tbwx-137" style="edgeStyle=orthogonalEdgeStyle;rounded=0;orthogonalLoop=1;jettySize=auto;html=1;" edge="1" parent="cxbMUShry3Oriru9tbwx-133" target="cxbMUShry3Oriru9tbwx-146">
          <mxGeometry relative="1" as="geometry">
            <mxPoint x="295.04761904761835" y="240" as="sourcePoint" />
          </mxGeometry>
        </mxCell>
        <mxCell id="cxbMUShry3Oriru9tbwx-139" style="edgeStyle=orthogonalEdgeStyle;rounded=0;orthogonalLoop=1;jettySize=auto;html=1;strokeColor=#A8201A;fontColor=#143642;fillColor=#FAE5C7;" edge="1" parent="cxbMUShry3Oriru9tbwx-133" source="cxbMUShry3Oriru9tbwx-140" target="cxbMUShry3Oriru9tbwx-136">
          <mxGeometry relative="1" as="geometry" />
        </mxCell>
        <mxCell id="cxbMUShry3Oriru9tbwx-140" value="" style="ellipse;html=1;shape=startState;fillColor=#000000;strokeColor=#ff0000;fontColor=#143642;" vertex="1" parent="cxbMUShry3Oriru9tbwx-133">
          <mxGeometry x="282" y="47" width="30" height="30" as="geometry" />
        </mxCell>
        <mxCell id="cxbMUShry3Oriru9tbwx-141" style="edgeStyle=orthogonalEdgeStyle;rounded=0;orthogonalLoop=1;jettySize=auto;html=1;" edge="1" parent="cxbMUShry3Oriru9tbwx-133" target="cxbMUShry3Oriru9tbwx-153">
          <mxGeometry relative="1" as="geometry">
            <mxPoint x="295.04761904761835" y="400" as="sourcePoint" />
          </mxGeometry>
        </mxCell>
        <mxCell id="cxbMUShry3Oriru9tbwx-145" style="edgeStyle=orthogonalEdgeStyle;rounded=0;orthogonalLoop=1;jettySize=auto;html=1;" edge="1" parent="cxbMUShry3Oriru9tbwx-133" target="cxbMUShry3Oriru9tbwx-142">
          <mxGeometry relative="1" as="geometry">
            <mxPoint x="295.04761904761835" y="320" as="sourcePoint" />
          </mxGeometry>
        </mxCell>
        <mxCell id="cxbMUShry3Oriru9tbwx-185" style="edgeStyle=orthogonalEdgeStyle;rounded=0;orthogonalLoop=1;jettySize=auto;html=1;entryX=1;entryY=0.5;entryDx=0;entryDy=0;" edge="1" parent="cxbMUShry3Oriru9tbwx-133" source="cxbMUShry3Oriru9tbwx-151" target="cxbMUShry3Oriru9tbwx-158">
          <mxGeometry relative="1" as="geometry">
            <Array as="points">
              <mxPoint x="377" y="389" />
              <mxPoint x="377" y="271" />
            </Array>
          </mxGeometry>
        </mxCell>
        <mxCell id="cxbMUShry3Oriru9tbwx-186" value="nein" style="edgeLabel;html=1;align=center;verticalAlign=middle;resizable=0;points=[];" vertex="1" connectable="0" parent="cxbMUShry3Oriru9tbwx-185">
          <mxGeometry x="-0.0056" relative="1" as="geometry">
            <mxPoint as="offset" />
          </mxGeometry>
        </mxCell>
        <mxCell id="cxbMUShry3Oriru9tbwx-151" value="Vorhersage&lt;div&gt;auslösen&lt;/div&gt;" style="strokeWidth=2;html=1;shape=mxgraph.flowchart.decision;whiteSpace=wrap;strokeColor=#0F8B8D;fontColor=#143642;fillColor=#FAE5C7;" vertex="1" parent="cxbMUShry3Oriru9tbwx-133">
          <mxGeometry x="237" y="354" width="120" height="70" as="geometry" />
        </mxCell>
        <mxCell id="cxbMUShry3Oriru9tbwx-158" value="Neues Bild&lt;div&gt;zum&amp;nbsp;&lt;span style=&quot;background-color: transparent; color: light-dark(rgb(20, 54, 66), rgb(173, 202, 213));&quot;&gt;hochladen&lt;/span&gt;&lt;div&gt;&lt;div&gt;auswählen&lt;/div&gt;&lt;/div&gt;&lt;/div&gt;" style="rounded=1;whiteSpace=wrap;html=1;labelBackgroundColor=none;fillColor=#FAE5C7;strokeColor=#0F8B8D;fontColor=#143642;" vertex="1" parent="cxbMUShry3Oriru9tbwx-133">
          <mxGeometry x="237" y="241" width="120" height="60" as="geometry" />
        </mxCell>
        <mxCell id="cxbMUShry3Oriru9tbwx-161" style="edgeStyle=orthogonalEdgeStyle;rounded=0;orthogonalLoop=1;jettySize=auto;html=1;entryX=0.5;entryY=0;entryDx=0;entryDy=0;entryPerimeter=0;" edge="1" parent="cxbMUShry3Oriru9tbwx-133" source="cxbMUShry3Oriru9tbwx-158" target="cxbMUShry3Oriru9tbwx-151">
          <mxGeometry relative="1" as="geometry" />
        </mxCell>
        <mxCell id="cxbMUShry3Oriru9tbwx-168" style="edgeStyle=orthogonalEdgeStyle;rounded=0;orthogonalLoop=1;jettySize=auto;html=1;entryX=0.5;entryY=0;entryDx=0;entryDy=0;" edge="1" parent="cxbMUShry3Oriru9tbwx-133" source="cxbMUShry3Oriru9tbwx-164" target="cxbMUShry3Oriru9tbwx-167">
          <mxGeometry relative="1" as="geometry">
            <Array as="points">
              <mxPoint x="297" y="534" />
              <mxPoint x="475" y="534" />
            </Array>
          </mxGeometry>
        </mxCell>
        <mxCell id="cxbMUShry3Oriru9tbwx-169" style="edgeStyle=orthogonalEdgeStyle;rounded=0;orthogonalLoop=1;jettySize=auto;html=1;entryX=0.5;entryY=0;entryDx=0;entryDy=0;" edge="1" parent="cxbMUShry3Oriru9tbwx-133" source="cxbMUShry3Oriru9tbwx-164" target="cxbMUShry3Oriru9tbwx-166">
          <mxGeometry relative="1" as="geometry">
            <Array as="points">
              <mxPoint x="297" y="534" />
              <mxPoint x="119" y="534" />
            </Array>
          </mxGeometry>
        </mxCell>
        <mxCell id="cxbMUShry3Oriru9tbwx-170" style="edgeStyle=orthogonalEdgeStyle;rounded=0;orthogonalLoop=1;jettySize=auto;html=1;entryX=0.5;entryY=0;entryDx=0;entryDy=0;" edge="1" parent="cxbMUShry3Oriru9tbwx-133" source="cxbMUShry3Oriru9tbwx-164" target="cxbMUShry3Oriru9tbwx-165">
          <mxGeometry relative="1" as="geometry">
            <Array as="points">
              <mxPoint x="297" y="528" />
              <mxPoint x="297" y="528" />
            </Array>
          </mxGeometry>
        </mxCell>
        <mxCell id="cxbMUShry3Oriru9tbwx-164" value="" style="line;strokeWidth=5;fillColor=#000000;align=left;verticalAlign=middle;spacingTop=-1;spacingLeft=3;spacingRight=3;rotatable=0;labelPosition=right;points=[];portConstraint=eastwest;strokeColor=inherit;fontColor=#143642;shadow=1;" vertex="1" parent="cxbMUShry3Oriru9tbwx-133">
          <mxGeometry x="1.75" y="493" width="590.5" height="8" as="geometry" />
        </mxCell>
        <mxCell id="cxbMUShry3Oriru9tbwx-165" value="Bild Verarbeitung&lt;div&gt;im Backend&lt;/div&gt;" style="rounded=1;whiteSpace=wrap;html=1;labelBackgroundColor=none;fillColor=#FAE5C7;strokeColor=#0F8B8D;fontColor=#143642;" vertex="1" parent="cxbMUShry3Oriru9tbwx-133">
          <mxGeometry x="237" y="570" width="120" height="60" as="geometry" />
        </mxCell>
        <mxCell id="cxbMUShry3Oriru9tbwx-166" value="OCR- Anwendung" style="rounded=1;whiteSpace=wrap;html=1;labelBackgroundColor=none;fillColor=#FAE5C7;strokeColor=#0F8B8D;fontColor=#143642;" vertex="1" parent="cxbMUShry3Oriru9tbwx-133">
          <mxGeometry x="59" y="570" width="120" height="60" as="geometry" />
        </mxCell>
        <mxCell id="cxbMUShry3Oriru9tbwx-167" value="Erstellung der&lt;div&gt;JSON-Antwort&lt;/div&gt;" style="rounded=1;whiteSpace=wrap;html=1;strokeColor=#0F8B8D;fontColor=#143642;fillColor=#FAE5C7;" vertex="1" parent="cxbMUShry3Oriru9tbwx-133">
          <mxGeometry x="415" y="570" width="120" height="60" as="geometry" />
        </mxCell>
        <mxCell id="cxbMUShry3Oriru9tbwx-171" style="edgeStyle=orthogonalEdgeStyle;rounded=0;orthogonalLoop=1;jettySize=auto;html=1;entryX=0.5;entryY=0.018;entryDx=0;entryDy=0;entryPerimeter=0;" edge="1" parent="cxbMUShry3Oriru9tbwx-133" source="cxbMUShry3Oriru9tbwx-151" target="cxbMUShry3Oriru9tbwx-164">
          <mxGeometry relative="1" as="geometry" />
        </mxCell>
        <mxCell id="cxbMUShry3Oriru9tbwx-184" value="ja" style="edgeLabel;html=1;align=center;verticalAlign=middle;resizable=0;points=[];" vertex="1" connectable="0" parent="cxbMUShry3Oriru9tbwx-171">
          <mxGeometry x="-0.0964" relative="1" as="geometry">
            <mxPoint as="offset" />
          </mxGeometry>
        </mxCell>
        <mxCell id="cxbMUShry3Oriru9tbwx-174" style="edgeStyle=orthogonalEdgeStyle;rounded=0;orthogonalLoop=1;jettySize=auto;html=1;entryX=0.5;entryY=0;entryDx=0;entryDy=0;strokeColor=#000000;" edge="1" parent="cxbMUShry3Oriru9tbwx-133" source="cxbMUShry3Oriru9tbwx-172" target="cxbMUShry3Oriru9tbwx-175">
          <mxGeometry relative="1" as="geometry">
            <Array as="points">
              <mxPoint x="297" y="726" />
            </Array>
          </mxGeometry>
        </mxCell>
        <mxCell id="cxbMUShry3Oriru9tbwx-172" value="" style="line;strokeWidth=5;fillColor=#000000;align=left;verticalAlign=middle;spacingTop=-1;spacingLeft=3;spacingRight=3;rotatable=0;labelPosition=right;points=[];portConstraint=eastwest;strokeColor=inherit;fontColor=#143642;shadow=1;" vertex="1" parent="cxbMUShry3Oriru9tbwx-133">
          <mxGeometry x="3.5" y="692" width="590.5" height="8" as="geometry" />
        </mxCell>
        <mxCell id="cxbMUShry3Oriru9tbwx-175" value="Anzeige im&lt;div&gt;Frontend&lt;/div&gt;" style="rounded=1;whiteSpace=wrap;html=1;strokeColor=#0F8B8D;fontColor=#143642;fillColor=#FAE5C7;" vertex="1" parent="cxbMUShry3Oriru9tbwx-133">
          <mxGeometry x="237" y="773" width="120" height="60" as="geometry" />
        </mxCell>
        <mxCell id="cxbMUShry3Oriru9tbwx-176" style="edgeStyle=orthogonalEdgeStyle;rounded=0;orthogonalLoop=1;jettySize=auto;html=1;entryX=0.5;entryY=0;entryDx=0;entryDy=0;strokeColor=#A8201A;exitX=0.5;exitY=1;exitDx=0;exitDy=0;" edge="1" parent="cxbMUShry3Oriru9tbwx-133" source="cxbMUShry3Oriru9tbwx-175" target="cxbMUShry3Oriru9tbwx-134">
          <mxGeometry relative="1" as="geometry">
            <mxPoint x="296.66" y="844" as="sourcePoint" />
            <mxPoint x="296.66" y="917" as="targetPoint" />
            <Array as="points" />
          </mxGeometry>
        </mxCell>
        <mxCell id="cxbMUShry3Oriru9tbwx-177" style="edgeStyle=orthogonalEdgeStyle;rounded=0;orthogonalLoop=1;jettySize=auto;html=1;entryX=0.195;entryY=0.065;entryDx=0;entryDy=0;entryPerimeter=0;" edge="1" parent="cxbMUShry3Oriru9tbwx-133" source="cxbMUShry3Oriru9tbwx-166" target="cxbMUShry3Oriru9tbwx-172">
          <mxGeometry relative="1" as="geometry" />
        </mxCell>
        <mxCell id="cxbMUShry3Oriru9tbwx-178" style="edgeStyle=orthogonalEdgeStyle;rounded=0;orthogonalLoop=1;jettySize=auto;html=1;entryX=0.496;entryY=0.065;entryDx=0;entryDy=0;entryPerimeter=0;" edge="1" parent="cxbMUShry3Oriru9tbwx-133" source="cxbMUShry3Oriru9tbwx-165" target="cxbMUShry3Oriru9tbwx-172">
          <mxGeometry relative="1" as="geometry" />
        </mxCell>
        <mxCell id="cxbMUShry3Oriru9tbwx-181" style="edgeStyle=orthogonalEdgeStyle;rounded=0;orthogonalLoop=1;jettySize=auto;html=1;entryX=0.799;entryY=0.065;entryDx=0;entryDy=0;entryPerimeter=0;" edge="1" parent="cxbMUShry3Oriru9tbwx-133" source="cxbMUShry3Oriru9tbwx-167" target="cxbMUShry3Oriru9tbwx-172">
          <mxGeometry relative="1" as="geometry" />
        </mxCell>
      </root>
    </mxGraphModel>
  </diagram>
</mxfile>
